<svg width="2000" height="300" viewBox="0 0 2000 300" fill="none" xmlns="http://www.w3.org/2000/svg">
<g clip-path="url(#clip0_2988_48831)">
<path d="M892.748 257.707C892.748 257.707 953.31 271.579 1001.55 267.857C1001.55 267.857 1078.98 326.842 1210.35 285C1210.35 285 1242.51 300.113 1255.61 278.797C1255.61 278.797 1349.63 308.797 1428.48 278.797C1472.31 262.105 1475.16 246.88 1475.16 246.88C1475.16 246.88 1551.81 253.308 1572.3 203.12C1592.79 153.045 1544.67 126.993 1528.46 119.323C1512.51 111.654 1452.6 102.744 1427.05 113.572C1427.05 113.572 1410.32 65.3008 1292.05 60.9023C1197.25 69.1354 1180.39 99.0226 1176.76 110.978C1176.76 110.978 1071.71 91.9174 1045.39 160.489C1045.39 160.489 959.276 119.887 875.37 184.511C839.317 224.098 874.851 254.211 892.748 257.707Z" fill="#F0F2F9"/>
<path opacity="0.1" d="M32.5534 194.549C32.5534 194.549 92.4678 208.308 140.062 204.586C140.062 204.586 216.576 262.895 346.391 221.504C346.391 221.504 378.164 236.391 391.132 215.414C391.132 215.414 484.116 245.075 562.057 215.414C605.371 198.947 608.225 183.835 608.225 183.835C608.225 183.835 683.96 190.15 704.191 140.526C724.422 91.015 676.828 65.3008 660.877 57.7444C645.055 50.188 585.919 41.391 560.63 52.1053C560.63 52.1053 544.031 4.3985 427.184 0C333.422 8.1203 316.823 37.6692 313.191 49.5113C313.191 49.5113 209.314 30.6767 183.377 98.4586C183.377 98.4586 98.3036 58.3083 15.3053 122.256C-20.2283 161.278 14.9163 191.053 32.5534 194.549Z" fill="#F0F2F9"/>
<path d="M301.391 186.767C301.391 186.767 306.189 164.775 319.157 164.775C319.157 164.775 314.359 136.918 343.019 127.444C343.019 127.444 381.925 115.602 397.617 139.85C397.617 139.85 410.585 122.03 431.076 130.94C431.076 130.94 451.566 104.775 487.748 103.647C523.93 102.406 553.887 124.399 556.61 142.218C556.61 142.218 588.643 132.181 601.611 160.038C601.611 160.038 631.698 180.226 601.611 198.609C571.524 216.993 552.461 186.767 552.461 186.767C552.461 186.767 529.895 220.038 497.215 215.301C464.405 210.564 441.969 198.722 441.969 198.722C441.969 198.722 403.712 209.436 361.435 207.068C319.157 204.7 307.615 206.955 301.391 186.767Z" fill="#F0F2F9"/>
<path opacity="0.1" d="M795.484 164.211C795.484 164.211 800.283 142.218 813.251 142.218C813.251 142.218 808.453 114.361 837.113 104.887C837.113 104.887 876.019 93.0451 891.71 117.293C891.71 117.293 904.679 99.4737 925.169 108.383C925.169 108.383 945.659 82.2181 981.841 81.0903C1018.02 79.8497 1047.98 101.842 1050.7 119.662C1050.7 119.662 1082.74 109.624 1095.7 137.481C1095.7 137.481 1125.79 157.669 1095.7 176.053C1065.62 194.436 1046.55 164.211 1046.55 164.211C1046.55 164.211 1023.99 197.481 991.309 192.744C958.498 188.008 936.063 176.165 936.063 176.165C936.063 176.165 897.806 186.88 855.528 184.511C813.251 182.143 801.709 184.399 795.484 164.211Z" fill="#F0F2F9"/>
<path d="M2000 208.309C1982.36 205.038 1971.98 198.158 1971.98 198.158C1971.98 198.158 1946.31 236.053 1909.09 230.639C1871.74 225.226 1846.19 211.805 1846.19 211.805C1846.19 211.805 1802.62 223.985 1754.63 221.279C1706.52 218.572 1693.42 221.166 1686.29 198.158C1686.29 198.158 1691.74 173.121 1706.52 173.121C1706.52 173.121 1701.07 141.429 1733.62 130.602C1733.62 130.602 1777.85 117.181 1795.74 144.7C1795.74 144.7 1810.53 124.399 1833.87 134.549C1833.87 134.549 1857.21 104.775 1898.32 103.534C1939.43 102.068 1973.54 127.106 1976.65 147.406C1976.65 147.406 1989.49 132.406 1999.87 127.669L2000 208.309Z" fill="#F0F2F9"/>
<path d="M0 127.782C2.46401 126.654 5.1874 125.639 8.29983 124.85C40.9804 116.391 61.3409 132.519 63.1565 138.609C63.1565 138.609 83.5171 120.225 101.154 128.571C101.154 128.571 141.875 87.857 180.781 100.827C219.686 113.91 233.044 121.579 236.545 141.541C236.545 141.541 261.056 125.413 281.157 145.489C290.883 156.654 286.344 166.692 286.344 166.692C286.344 166.692 314.745 143.233 332.253 174.812C343.276 194.436 311.633 202.669 305.408 203.346C299.183 204.022 256.646 205.714 234.73 189.586C234.73 189.586 227.727 222.631 167.553 221.955C107.249 221.278 109.195 194.21 109.195 194.21C109.195 194.21 91.5575 211.917 49.9287 210.338C33.1993 209.662 15.4325 209.549 0 208.421L0 127.782Z" fill="#F0F2F9"/>
<path d="M467.641 174.135C467.641 174.135 482.165 157.556 536.892 162.518C536.892 162.518 540.264 150.338 556.993 145.488C573.723 140.639 585.913 143.684 585.913 143.684C585.913 143.684 592.787 113.346 640.251 106.015C687.716 98.6839 717.414 124.511 724.676 134.21C724.676 134.21 733.624 124.962 746.463 126.428C759.302 127.894 763.841 139.398 763.841 139.398C763.841 139.398 785.109 114.248 814.159 119.661C843.208 125.075 855.528 141.541 857.733 152.706C857.733 152.706 896.249 144.924 900.269 166.804C904.16 188.684 820.902 189.699 820.902 189.699C820.902 189.699 745.426 190.15 723.12 181.917C723.12 181.917 699.128 197.932 658.277 197.932C617.427 197.932 575.538 203.233 550.38 179.436C550.38 179.549 483.851 187.33 467.641 174.135Z" fill="#F0F2F9"/>
<path d="M1441.58 174.135C1441.58 174.135 1456.1 157.556 1510.83 162.518C1510.83 162.518 1514.2 150.338 1530.93 145.488C1547.66 140.639 1559.85 143.684 1559.85 143.684C1559.85 143.684 1566.72 113.346 1614.19 106.015C1661.65 98.6839 1691.35 124.511 1698.61 134.21C1698.61 134.21 1707.56 124.962 1720.4 126.428C1733.24 127.894 1737.78 139.398 1737.78 139.398C1737.78 139.398 1759.05 114.248 1788.1 119.661C1817.15 125.075 1829.47 141.541 1831.67 152.706C1831.67 152.706 1870.19 144.924 1874.21 166.804C1878.1 188.684 1794.84 189.699 1794.84 189.699C1794.84 189.699 1719.36 190.15 1697.06 181.917C1697.06 181.917 1673.07 197.932 1632.21 197.932C1591.36 197.932 1549.48 203.233 1524.32 179.436C1524.32 179.549 1457.79 187.33 1441.58 174.135Z" fill="#F0F2F9"/>
<path opacity="0.1" d="M1392.3 125.639C1392.3 125.639 1406.82 109.06 1461.55 114.022C1461.55 114.022 1464.92 101.842 1481.65 96.9923C1498.38 92.1427 1510.57 95.1878 1510.57 95.1878C1510.57 95.1878 1517.44 64.8494 1564.91 57.5186C1612.37 50.1878 1642.07 76.0148 1649.33 85.7141C1649.33 85.7141 1658.28 76.466 1671.12 77.9321C1683.96 79.3983 1688.5 90.9021 1688.5 90.9021C1688.5 90.9021 1709.77 65.7517 1738.81 71.1652C1767.86 76.5787 1780.18 93.0449 1782.39 104.21C1782.39 104.21 1820.91 96.4284 1824.93 118.308C1828.82 140.188 1745.56 141.203 1745.56 141.203C1745.56 141.203 1670.08 141.654 1647.78 133.421C1647.78 133.421 1623.78 149.436 1582.93 149.436C1542.08 149.436 1500.19 154.737 1475.04 130.94C1475.04 131.052 1408.51 138.834 1392.3 125.639Z" fill="#F0F2F9"/>
<path d="M2000 180.789H0V300H2000V180.789Z" fill="#F0F2F9"/>
</g>
<defs>
<clipPath id="clip0_2988_48831">
<rect width="2000" height="300" fill="white"/>
</clipPath>
</defs>
</svg>
