<svg id="visual" viewBox="0 0 1400 600" width="1400" height="600" xmlns="http://www.w3.org/2000/svg" xmlns:xlink="http://www.w3.org/1999/xlink" version="1.1"><rect x="0" y="0" width="1400" height="600" fill="#151429"></rect><g transform="translate(85.97004883325442 -4.492586880210013)"><path d="M314.3 -524.7C358.3 -460.8 311 -290.6 319.5 -174.5C328 -58.4 392.1 3.6 427 92C461.9 180.4 467.5 295.2 412.1 354.4C356.6 413.7 240.2 417.5 130.1 455.5C20 493.5 -83.7 565.8 -184.8 565.3C-285.9 564.9 -384.4 491.7 -452.7 399.6C-520.9 307.6 -558.9 196.7 -591.8 75.2C-624.7 -46.4 -652.6 -178.5 -578.4 -232.3C-504.3 -286 -328.2 -261.3 -214.8 -293.5C-101.4 -325.7 -50.7 -414.9 42.2 -480.6C135.2 -546.3 270.3 -588.6 314.3 -524.7" fill="#111025"></path></g></svg>